<?xml version="1.0" encoding="UTF-8" standalone="no"?>
<svg
   xmlns:dc="http://purl.org/dc/elements/1.1/"
   xmlns:cc="http://creativecommons.org/ns#"
   xmlns:rdf="http://www.w3.org/1999/02/22-rdf-syntax-ns#"
   xmlns:svg="http://www.w3.org/2000/svg"
   xmlns="http://www.w3.org/2000/svg"
   xmlns:sodipodi="http://sodipodi.sourceforge.net/DTD/sodipodi-0.dtd"
   xmlns:inkscape="http://www.inkscape.org/namespaces/inkscape"
   version="1.1"
   id="svg833"
   width="230.24265"
   height="230.24265"
   viewBox="0 0 230.24264 230.24264"
   sodipodi:docname="water_glass.svg"
   inkscape:version="1.0.1 (3bc2e813f5, 2020-09-07)">
  <metadata
     id="metadata839">
    <rdf:RDF>
      <cc:Work
         rdf:about="">
        <dc:format>image/svg+xml</dc:format>
        <dc:type
           rdf:resource="http://purl.org/dc/dcmitype/StillImage" />
        <dc:title />
      </cc:Work>
    </rdf:RDF>
  </metadata>
  <defs
     id="defs837" />
  <sodipodi:namedview
     pagecolor="#ffffff"
     bordercolor="#666666"
     borderopacity="1"
     objecttolerance="10"
     gridtolerance="10"
     guidetolerance="10"
     inkscape:pageopacity="0"
     inkscape:pageshadow="2"
     inkscape:window-width="1920"
     inkscape:window-height="1017"
     id="namedview835"
     showgrid="false"
     fit-margin-top="0"
     fit-margin-left="0"
     fit-margin-right="0"
     fit-margin-bottom="0"
     inkscape:zoom="2.538096"
     inkscape:cx="91.342322"
     inkscape:cy="107.60147"
     inkscape:window-x="-8"
     inkscape:window-y="-8"
     inkscape:window-maximized="1"
     inkscape:current-layer="g841"
     inkscape:document-rotation="0" />
  <g
     inkscape:groupmode="layer"
     inkscape:label="Image"
     id="g841"
     transform="translate(-350.0189,0.57509595)">
    <path
       style="fill:#b1d5dc;fill-opacity:1;fill-rule:evenodd;stroke:#b1d5dc;stroke-width:6.911;stroke-linecap:round;paint-order:stroke markers fill;stroke-miterlimit:4;stroke-dasharray:none"
       d="m 417.62605,180.87297 c 0,-0.96065 -0.2395,-3.27998 -0.53221,-5.15405 -0.92099,-5.89652 -2.5635,-21.5663 -5.55525,-52.99774 -0.49793,-5.23124 -0.76139,-7.90526 -2.22332,-22.56638 -0.32087,-3.217803 -0.99691,-9.235505 -1.50232,-13.372676 -0.50542,-4.13717 -1.14138,-9.904135 -1.41325,-12.815477 -0.27187,-2.911342 -0.748,-7.926094 -1.05806,-11.143893 -0.31006,-3.217799 -0.69897,-8.169867 -0.86424,-11.004595 l -0.30049,-5.154051 h 60.83942 60.83942 l -0.36085,3.482467 c -0.40837,3.941032 -1.25046,12.507431 -2.04032,20.755501 -0.29348,3.064571 -0.77658,8.079323 -1.07357,11.143894 -0.297,3.06457 -0.76233,7.953954 -1.03407,10.865296 -0.27174,2.911342 -0.92178,8.803674 -1.44453,13.094074 -1.1145,9.14718 -1.62033,14.03375 -3.69136,35.66046 -0.29348,3.06457 -0.77765,8.07932 -1.07594,11.14389 -1.11298,11.43441 -1.63401,16.87699 -2.1744,22.71338 -0.30542,3.29864 -0.70813,6.24481 -0.89492,6.54703 -0.2189,0.3542 -17.06303,0.54951 -47.38968,0.54951 h -47.05006 z m 88.82635,-7.02918 c 0.32668,-1.92656 0.66787,-5.1981 1.96119,-18.80532 0.26215,-2.75811 0.88803,-8.52508 1.39086,-12.81547 0.50282,-4.2904 1.17098,-10.43347 1.4848,-13.65127 0.31381,-3.2178 0.81254,-8.23256 1.10828,-11.1439 0.29574,-2.91134 0.7959,-7.92609 1.11148,-11.14389 0.31557,-3.2178 0.80812,-8.232554 1.09453,-11.143896 1.20448,-12.243133 1.22203,-12.799311 0.41383,-13.109448 -0.42347,-0.162503 -23.19929,-0.100154 -50.61293,0.138554 l -49.84296,0.434014 0.0616,5.014752 c 0.0339,2.758114 0.33841,7.647497 0.67674,10.865296 0.33832,3.217798 0.86721,8.357918 1.1753,11.422488 0.3081,3.06458 0.96801,9.08228 1.46646,13.37268 0.49846,4.2904 1.14744,10.3081 1.44218,13.37267 0.29473,3.06457 0.7589,7.82858 1.03148,10.5867 1.2087,12.2304 1.7141,17.60543 2.09566,22.28778 0.22476,2.75812 0.61147,5.32818 0.85935,5.71125 0.35385,0.54684 9.29024,0.69649 41.58925,0.69649 h 41.13857 z"
       id="path845" />
    <path
       style="fill:#28a5cf;fill-opacity:1;fill-rule:evenodd;stroke:#b1d5dc;stroke-width:5.049;stroke-linecap:round;paint-order:stroke markers fill;stroke-miterlimit:4;stroke-dasharray:none"
       d="m 424.55395,173.54715 c -0.003,-0.92097 -0.26641,-2.64962 -0.58632,-3.84146 -0.3199,-1.19184 -0.58585,-3.85131 -0.59099,-5.90994 -0.005,-2.05863 -0.27109,-4.71811 -0.59099,-5.90995 -0.31991,-1.19183 -0.58375,-3.75133 -0.58632,-5.68777 -0.003,-1.93643 -0.25868,-4.59591 -0.56912,-5.90994 -0.31044,-1.31403 -0.64569,-4.42808 -0.74501,-6.9201 -0.0993,-2.49203 -0.37722,-5.03007 -0.61755,-5.6401 -0.24034,-0.61002 -0.43697,-2.74468 -0.43697,-4.74367 0,-1.999 -0.26595,-4.65558 -0.591,-5.90352 -0.32505,-1.24794 -0.59871,-3.81169 -0.60815,-5.69722 -0.009,-1.88553 -0.20342,-4.22609 -0.43107,-5.20123 -0.22765,-0.97514 -0.55748,-4.19065 -0.73296,-7.14557 -0.17549,-2.95493 -0.5134,-5.735722 -0.75093,-6.179541 -0.23752,-0.443819 -0.44243,-2.369959 -0.45535,-4.280312 -0.0129,-1.910352 -0.19484,-4.359859 -0.40428,-5.443348 -0.20943,-1.08349 -0.48743,-2.812834 -0.61778,-3.842988 l -0.23699,-1.873007 49.5739,0.100024 49.5739,0.100025 -0.10797,4.136959 c -0.0594,2.275328 -0.35741,5.200749 -0.66228,6.500936 -0.30487,1.300187 -0.55904,3.959661 -0.56481,5.909942 -0.006,1.95028 -0.27224,4.52111 -0.59215,5.71295 -0.3199,1.19183 -0.59146,3.67401 -0.60347,5.51594 -0.012,1.84193 -0.19926,4.14681 -0.41611,5.12195 -0.21685,0.97514 -0.54796,4.16651 -0.73581,7.09193 -0.18785,2.92542 -0.53461,5.81806 -0.77056,6.42809 -0.23596,0.61002 -0.42784,2.5603 -0.4264,4.33396 0.002,1.77364 -0.25663,4.73185 -0.57347,6.57378 -0.5527,3.21296 -0.9667,7.28573 -1.78226,17.53283 -0.20696,2.60037 -0.55212,5.52579 -0.76702,6.50093 -0.2149,0.97515 -0.50845,3.67894 -0.65234,6.00845 l -0.26161,4.23545 h -40.33754 -40.33754 z"
       id="path847" />
    <path
       style="fill:#2871cf;fill-opacity:1;fill-rule:evenodd;stroke:#2871cf;stroke-width:0.148912;stroke-linecap:round;paint-order:stroke markers fill;stroke-opacity:1"
       d="M 350.09336,114.54623 V -0.50063995 H 465.14023 580.1871 V 114.54623 229.5931 H 465.14023 350.09336 Z m 163.10053,68.97522 c 0.22433,-0.41914 0.40786,-1.67189 0.40786,-2.78387 0,-1.11198 0.18072,-2.35946 0.4016,-2.77217 0.22087,-0.41271 0.50132,-3.01621 0.62322,-5.78554 0.12189,-2.76934 0.39515,-5.4967 0.60724,-6.06082 0.21209,-0.56411 0.54168,-3.31223 0.73244,-6.10693 0.19076,-2.79471 0.52168,-6.05643 0.73539,-7.24827 0.2137,-1.19183 0.4015,-3.72999 0.41731,-5.64034 0.0158,-1.91035 0.2231,-3.8365 0.46063,-4.28031 0.23752,-0.44382 0.57544,-3.22461 0.75092,-6.17954 0.17549,-2.95493 0.50532,-6.17044 0.73297,-7.14558 0.22765,-0.97514 0.42163,-3.55483 0.43106,-5.73264 0.0102,-2.35933 0.19438,-4.13688 0.45564,-4.39814 0.2552,-0.2552 0.52359,-2.63492 0.64208,-5.69325 0.11198,-2.89012 0.38355,-5.60127 0.60348,-6.02479 0.21993,-0.42352 0.53026,-3.17164 0.68963,-6.10694 0.15937,-2.935304 0.4841,-6.046104 0.72163,-6.912896 0.23753,-0.866791 0.4361,-3.404946 0.44127,-5.640346 0.005,-2.350557 0.20509,-4.427244 0.47348,-4.924951 0.25524,-0.473324 0.58785,-3.165468 0.73913,-5.98254 0.15127,-2.817072 0.4701,-5.831143 0.7085,-6.697934 0.23841,-0.866791 0.43769,-3.207341 0.44286,-5.201226 0.005,-1.993884 0.27535,-4.646282 0.6004,-5.894221 0.32505,-1.247939 0.59291,-3.960386 0.59526,-6.027664 0.002,-2.185075 0.24949,-4.567034 0.59,-5.689489 0.43623,-1.437952 0.47311,-2.066518 0.14449,-2.462476 -0.62947,-0.758466 -124.66492,-0.797358 -124.94547,-0.03916 -0.10023,0.270872 -0.0257,1.99953 0.1656,3.841462 1.14521,11.026348 1.52459,14.915452 1.90249,19.502808 0.23206,2.817072 0.60696,5.919792 0.83312,6.894932 0.22615,0.975141 0.50718,3.811913 0.62449,6.303938 0.11731,2.492026 0.45785,5.49902 0.75674,6.682214 0.2989,1.18319 0.54345,3.701042 0.54345,5.595222 0,1.89418 0.26595,4.465005 0.59099,5.712947 0.32505,1.24794 0.591,3.90741 0.591,5.90994 0,2.00253 0.26595,4.662 0.59099,5.90994 0.32505,1.24794 0.5931,3.87174 0.59567,5.83067 0.003,1.95892 0.26642,4.53682 0.58632,5.72866 0.3199,1.19184 0.58374,3.85248 0.58632,5.91254 0.003,2.06006 0.20413,4.36494 0.44792,5.12195 0.24378,0.75701 0.56815,3.76991 0.72083,6.69534 0.15267,2.92542 0.48511,5.70621 0.73874,6.17953 0.26754,0.49927 0.46116,2.58209 0.46116,4.96084 0,2.5029 0.22857,4.85371 0.58673,6.03434 0.33642,1.10896 0.59256,3.53093 0.60039,5.67706 0.007,2.05863 0.20915,4.45216 0.44808,5.31895 0.23892,0.86679 0.55551,3.96951 0.70353,6.89493 0.20938,4.13825 0.42703,5.55946 0.98049,6.40244 l 0.71137,1.08349 h 47.81135 c 46.86645,0 47.81941,-0.0151 48.21921,-0.76209 z"
       id="path849" />
  </g>
</svg>
